ffmpeg version 3.4.8-0ubuntu0.2 Copyright (c) 2000-2020 the FFmpeg developers
  built with gcc 7 (Ubuntu 7.5.0-3ubuntu1~18.04)
  configuration: --prefix=/usr --extra-version=0ubuntu0.2 --toolchain=hardened --libdir=/usr/lib/x86_64-linux-gnu --incdir=/usr/include/x86_64-linux-gnu --enable-gpl --disable-stripping --enable-avresample --enable-avisynth --enable-gnutls --enable-ladspa --enable-libass --enable-libbluray --enable-libbs2b --enable-libcaca --enable-libcdio --enable-libflite --enable-libfontconfig --enable-libfreetype --enable-libfribidi --enable-libgme --enable-libgsm --enable-libmp3lame --enable-libmysofa --enable-libopenjpeg --enable-libopenmpt --enable-libopus --enable-libpulse --enable-librubberband --enable-librsvg --enable-libshine --enable-libsnappy --enable-libsoxr --enable-libspeex --enable-libssh --enable-libtheora --enable-libtwolame --enable-libvorbis --enable-libvpx --enable-libwavpack --enable-libwebp --enable-libx265 --enable-libxml2 --enable-libxvid --enable-libzmq --enable-libzvbi --enable-omx --enable-openal --enable-opengl --enable-sdl2 --enable-libdc1394 --enable-libdrm --enable-libiec61883 --enable-chromaprint --enable-frei0r --enable-libopencv --enable-libx264 --enable-shared
  libavutil      55. 78.100 / 55. 78.100
  libavcodec     57.107.100 / 57.107.100
  libavformat    57. 83.100 / 57. 83.100
  libavdevice    57. 10.100 / 57. 10.100
  libavfilter     6.107.100 /  6.107.100
  libavresample   3.  7.  0 /  3.  7.  0
  libswscale      4.  8.100 /  4.  8.100
  libswresample   2.  9.100 /  2.  9.100
  libpostproc    54.  7.100 / 54.  7.100
[rawvideo @ 0x55a7bd3f2a20] Estimating duration from bitrate, this may be inaccurate
Input #0, rawvideo, from '../../SVC-Encoder-20220109T061506Z-001/SVC-Encoder/Dataset/RollerCoaster/ERP_8x8/tile_yuv/Tile_55_480x240.yuv':
  Duration: 00:00:10.00, start: 0.000000, bitrate: 41472 kb/s
    Stream #0:0: Video: rawvideo (I420 / 0x30323449), yuv420p, 480x240, 41472 kb/s, 30 tbr, 30 tbn, 30 tbc
Stream mapping:
  Stream #0:0 -> #0:0 (rawvideo (native) -> h264 (libx264))
Press [q] to stop, [?] for help
[libx264 @ 0x55a7bd3ffc60] using cpu capabilities: MMX2 SSE2Fast LZCNT SSSE3 SSE4.2 AVX
[libx264 @ 0x55a7bd3ffc60] profile High, level 2.1
Output #0, rawvideo, to 'RollerCoaster_Tile_55_480x240_x264_QP_40.h264':
  Metadata:
    encoder         : Lavf57.83.100
    Stream #0:0: Video: h264 (libx264), yuv420p, 480x240, q=-1--1, 30 fps, 30 tbn, 30 tbc
    Metadata:
      encoder         : Lavc57.107.100 libx264
    Side data:
      cpb: bitrate max/min/avg: 0/0/0 buffer size: 0 vbv_delay: -1
frame=  300 fps=0.0 q=46.0 LPSNR=Y:inf U:inf V:inf *:inf size=      20kB time=00:00:09.93 bitrate=  16.1kbits/s speed=22.3x    
video:20kB audio:0kB subtitle:0kB other streams:0kB global headers:0kB muxing overhead: 0.000000%
[libx264 @ 0x55a7bd3ffc60] frame I:2     Avg QP:36.07  size:  3184  PSNR Mean Y:36.35 U:42.71 V:40.08 Avg:37.45 Global:37.38
[libx264 @ 0x55a7bd3ffc60] frame P:77    Avg QP:38.47  size:   104  PSNR Mean Y:35.45 U:42.23 V:39.96 Avg:36.63 Global:36.62
[libx264 @ 0x55a7bd3ffc60] frame B:221   Avg QP:45.41  size:    25  PSNR Mean Y:35.23 U:42.22 V:39.93 Avg:36.44 Global:36.42
[libx264 @ 0x55a7bd3ffc60] consecutive B-frames:  1.0%  2.0%  1.0% 96.0%
[libx264 @ 0x55a7bd3ffc60] mb I  I16..4: 34.4% 62.0%  3.6%
[libx264 @ 0x55a7bd3ffc60] mb P  I16..4:  0.1%  0.1%  0.0%  P16..4: 12.8%  0.1%  0.0%  0.0%  0.0%    skip:87.0%
[libx264 @ 0x55a7bd3ffc60] mb B  I16..4:  0.0%  0.0%  0.0%  B16..8:  2.2%  0.0%  0.0%  direct: 0.0%  skip:97.8%  L0:33.9% L1:66.1% BI: 0.0%
[libx264 @ 0x55a7bd3ffc60] 8x8 transform intra:61.4% inter:97.2%
[libx264 @ 0x55a7bd3ffc60] coded y,uvDC,uvAC intra: 43.1% 59.8% 11.6% inter: 0.1% 0.2% 0.0%
[libx264 @ 0x55a7bd3ffc60] i16 v,h,dc,p: 23% 48% 15% 14%
[libx264 @ 0x55a7bd3ffc60] i8 v,h,dc,ddl,ddr,vr,hd,vl,hu:  7% 32% 24%  6%  4%  3% 12%  4%  8%
[libx264 @ 0x55a7bd3ffc60] i4 v,h,dc,ddl,ddr,vr,hd,vl,hu: 11% 27% 24%  6%  8%  8%  9%  4%  5%
[libx264 @ 0x55a7bd3ffc60] i8c dc,h,v,p: 55% 32%  5%  8%
[libx264 @ 0x55a7bd3ffc60] Weighted P-Frames: Y:1.3% UV:0.0%
[libx264 @ 0x55a7bd3ffc60] ref P L0: 65.3% 15.9% 13.3%  5.3%  0.1%
[libx264 @ 0x55a7bd3ffc60] ref B L0: 58.1% 34.9%  7.0%
[libx264 @ 0x55a7bd3ffc60] ref B L1: 81.2% 18.8%
[libx264 @ 0x55a7bd3ffc60] PSNR Mean Y:35.291 U:42.224 V:39.939 Avg:36.495 Global:36.475 kb/s:16.00
